<?xml version="1.0" standalone="no"?>
<!DOCTYPE svg PUBLIC "-//W3C//DTD SVG 20010904//EN"
 "http://www.w3.org/TR/2001/REC-SVG-20010904/DTD/svg10.dtd">
<svg version="1.0" xmlns="http://www.w3.org/2000/svg"
 width="20.000000pt" height="20.000000pt" viewBox="0 0 20.000000 20.000000"
 preserveAspectRatio="xMidYMid meet">

<g transform="translate(0.000000,20.000000) scale(0.100000,-0.100000)"
fill="#000000" stroke="none">
<path d="M14 177 c-3 -8 -4 -47 -2 -88 l3 -74 53 -3 52 -3 0 35 c0 20 -4 36
-10 36 -5 0 -10 7 -10 15 0 8 5 15 10 15 6 0 10 9 10 19 0 17 18 31 41 31 14
0 11 -27 -3 -34 -10 -5 -10 -7 0 -12 14 -7 16 -34 2 -34 -5 0 -10 -16 -10 -36
0 -28 3 -35 18 -32 14 3 17 17 20 91 l3 87 -86 0 c-62 0 -87 -4 -91 -13z"/>
</g>
</svg>
