<?xml version="1.0" standalone="no"?>
<!DOCTYPE svg PUBLIC "-//W3C//DTD SVG 20010904//EN"
 "http://www.w3.org/TR/2001/REC-SVG-20010904/DTD/svg10.dtd">
<svg version="1.0" xmlns="http://www.w3.org/2000/svg"
 width="30.000000pt" height="12.000000pt" viewBox="0 0 30.000000 12.000000"
 preserveAspectRatio="xMidYMid meet">

<g transform="translate(0.000000,12.000000) scale(0.100000,-0.100000)"
fill="#000000" stroke="none">
<path d="M110 92 c0 -5 9 -13 21 -18 20 -9 20 -10 3 -24 -16 -14 -17 -13 -11
3 5 14 1 17 -31 16 -37 -1 -37 -1 -7 -9 17 -4 24 -8 16 -9 -9 -1 -6 -8 10 -21
18 -16 34 -20 74 -18 l50 3 3 43 3 42 -65 0 c-36 0 -66 -4 -66 -8z m90 -17
c-16 -19 -34 -19 -50 0 -11 13 -7 15 25 15 32 0 36 -2 25 -15z m26 -33 c-4 -3
-11 -1 -17 5 -8 8 -8 15 2 26 12 13 14 13 17 -5 2 -11 1 -22 -2 -26z m-15 -8
c9 -12 3 -14 -36 -14 -39 0 -45 2 -36 14 6 7 22 14 36 14 14 0 30 -7 36 -14z"/>
<path d="M78 83 c7 -3 16 -2 19 1 4 3 -2 6 -13 5 -11 0 -14 -3 -6 -6z"/>
</g>
</svg>
