<?xml version="1.0" standalone="no"?>
<!DOCTYPE svg PUBLIC "-//W3C//DTD SVG 20010904//EN"
 "http://www.w3.org/TR/2001/REC-SVG-20010904/DTD/svg10.dtd">
<svg version="1.0" xmlns="http://www.w3.org/2000/svg"
 width="80.000000pt" height="20.000000pt" viewBox="0 0 980.000000 758.000000"
 preserveAspectRatio="xMidYMid meet">

<g transform="translate(0.000000,758.000000) scale(0.100000,-0.100000)"
fill="#000000" stroke="none">
<path d="M4895 7570 c-157 -12 -294 -80 -427 -213 -93 -93 -138 -200 -363
-862 l-123 -360 -143 -6 c-79 -4 -311 -7 -515 -8 l-371 -1 -7 297 c-5 209 -11
306 -20 327 -8 17 -32 48 -54 70 l-40 38 -679 2 c-742 1 -735 2 -800 -57 -56
-52 -64 -101 -70 -409 l-6 -268 -66 -2 c-36 0 -129 -2 -206 -3 -165 -2 -254
-24 -422 -105 -136 -65 -212 -118 -304 -209 -134 -133 -232 -316 -260 -482 -9
-56 -13 -533 -16 -1984 l-4 -1910 36 -105 c68 -195 151 -327 288 -457 135
-128 285 -213 453 -255 l89 -23 1085 0 c884 0 1089 2 1108 13 35 20 72 107 72
168 0 56 -24 101 -71 136 -40 30 -195 36 -1179 48 -487 6 -927 15 -979 20
-103 11 -151 29 -238 88 -113 78 -194 180 -262 328 l-33 71 5 1874 c4 1287 9
1894 16 1939 17 102 63 183 161 280 113 114 194 157 317 170 49 5 646 14 1328
20 1336 11 1909 23 1967 40 83 24 100 61 309 655 203 581 220 622 271 674 63
63 107 82 217 92 129 11 1959 11 2088 -1 159 -14 232 -62 291 -190 49 -104
213 -528 316 -815 114 -318 133 -366 154 -392 30 -40 75 -43 752 -63 179 -6
352 -14 385 -20 100 -16 199 -72 290 -164 103 -103 152 -193 166 -303 7 -50
12 -760 16 -1938 l5 -1861 -47 -94 c-80 -160 -138 -230 -255 -305 -121 -79
-164 -89 -440 -105 -240 -14 -270 -21 -315 -73 -80 -93 -65 -206 35 -275 l35
-24 275 5 c316 7 353 13 492 83 215 107 368 261 477 482 44 87 86 220 102 322
16 95 23 2310 10 3125 -9 628 -12 686 -30 757 -85 328 -338 597 -666 708 -115
39 -295 64 -399 56 -43 -4 -201 -4 -350 0 l-272 7 -112 310 c-143 392 -255
685 -293 763 -32 67 -128 178 -211 242 -29 22 -93 62 -142 88 l-89 47 -1116 3
c-614 1 -1161 -1 -1216 -6z m-2474 -1090 l158 0 5 -32 c3 -18 7 -99 9 -180 l4
-148 -473 0 -474 0 1 113 c1 61 4 141 8 177 l6 65 120 6 c66 4 201 5 299 3 99
-2 250 -4 337 -4z"/>
<path d="M1338 5263 c-37 -42 -40 -65 -50 -381 -12 -382 -3 -3076 10 -3175 14
-104 72 -148 132 -99 43 35 44 88 44 1827 0 1739 -1 1792 -44 1827 -28 23 -72
23 -92 1z"/>
<path d="M1884 5259 c-17 -19 -19 -54 -26 -622 -9 -676 6 -2918 21 -2985 5
-24 13 -47 17 -52 21 -19 52 -20 74 -2 19 15 24 34 33 118 7 65 11 689 11
1804 1 1617 0 1707 -17 1733 -23 35 -84 38 -113 6z"/>
<path d="M5760 4964 c-98 -12 -237 -38 -341 -64 -990 -250 -1715 -1041 -1876
-2050 -14 -91 -18 -170 -18 -380 1 -296 14 -403 80 -645 188 -686 677 -1271
1320 -1581 157 -76 286 -124 452 -169 209 -58 312 -69 623 -69 308 0 396 8
595 59 440 112 818 322 1134 630 261 254 453 539 585 866 102 256 148 454 166
724 34 485 -40 874 -245 1290 -129 263 -262 451 -465 655 -297 301 -662 520
-1060 638 -138 41 -229 60 -380 78 -122 14 -500 27 -570 18z m375 -374 c308
-21 547 -81 789 -199 223 -108 408 -244 591 -432 267 -275 451 -603 546 -973
71 -274 78 -653 18 -931 -122 -567 -480 -1076 -969 -1378 -109 -67 -288 -150
-420 -195 -576 -197 -1176 -146 -1699 143 -475 263 -827 690 -1008 1220 -53
157 -74 297 -80 550 -11 440 30 654 185 978 103 215 216 384 364 543 262 284
533 455 920 585 276 92 435 111 763 89z"/>
<path d="M5880 4089 c-133 -16 -242 -39 -361 -79 -248 -82 -428 -197 -640
-409 -198 -199 -293 -344 -384 -586 -80 -214 -88 -262 -88 -530 -1 -266 8
-348 55 -493 90 -283 214 -479 444 -702 257 -249 496 -375 827 -437 130 -24
465 -24 597 0 240 45 500 163 705 322 103 80 266 250 331 345 164 239 262 521
283 814 33 481 -123 923 -444 1255 -231 239 -504 393 -825 464 -197 44 -340
54 -500 36z m381 -205 c292 -40 557 -178 785 -408 223 -225 355 -474 411 -779
24 -127 23 -370 -1 -497 -112 -587 -544 -1027 -1136 -1156 -68 -15 -127 -19
-295 -19 -229 0 -299 10 -467 66 -219 73 -339 150 -524 334 -249 247 -356 429
-416 707 -19 89 -22 135 -22 328 -1 236 8 312 55 455 33 99 123 274 191 370
78 111 237 271 345 348 174 124 407 223 590 251 121 19 349 19 484 0z"/>
</g>
</svg>
